<?xml version="1.0" encoding="UTF-8"?>
<svg width="512" height="512" viewBox="0 0 512 512" xmlns="http://www.w3.org/2000/svg">
  <!-- Background gradient -->
  <defs>
    <linearGradient id="bgGradient" x1="0%" y1="0%" x2="100%" y2="100%">
      <stop offset="0%" style="stop-color:#0f172a;stop-opacity:1" />
      <stop offset="100%" style="stop-color:#1e293b;stop-opacity:1" />
    </linearGradient>
    
    <!-- Glow effect -->
    <filter id="glow">
      <feGaussianBlur stdDeviation="4" result="coloredBlur"/>
      <feMerge>
        <feMergeNode in="coloredBlur"/>
        <feMergeNode in="SourceGraphic"/>
      </feMerge>
    </filter>
  </defs>
  
  <!-- Rounded background -->
  <rect width="512" height="512" rx="80" fill="url(#bgGradient)"/>
  
  <!-- Grid pattern (subtle) -->
  <g opacity="0.1">
    <line x1="128" y1="128" x2="128" y2="384" stroke="#94a3b8" stroke-width="2"/>
    <line x1="192" y1="128" x2="192" y2="384" stroke="#94a3b8" stroke-width="2"/>
    <line x1="256" y1="128" x2="256" y2="384" stroke="#94a3b8" stroke-width="2"/>
    <line x1="320" y1="128" x2="320" y2="384" stroke="#94a3b8" stroke-width="2"/>
    <line x1="384" y1="128" x2="384" y2="384" stroke="#94a3b8" stroke-width="2"/>
    
    <line x1="128" y1="128" x2="384" y2="128" stroke="#94a3b8" stroke-width="2"/>
    <line x1="128" y1="192" x2="384" y2="192" stroke="#94a3b8" stroke-width="2"/>
    <line x1="128" y1="256" x2="384" y2="256" stroke="#94a3b8" stroke-width="2"/>
    <line x1="128" y1="320" x2="384" y2="320" stroke="#94a3b8" stroke-width="2"/>
    <line x1="128" y1="384" x2="384" y2="384" stroke="#94a3b8" stroke-width="2"/>
  </g>
  
  <!-- Tetromino blocks forming a recognizable pattern -->
  <!-- T-piece (cyan) -->
  <g filter="url(#glow)">
    <rect x="192" y="140" width="55" height="55" rx="8" fill="#22d3ee" stroke="#06b6d4" stroke-width="3"/>
    <rect x="256" y="140" width="55" height="55" rx="8" fill="#22d3ee" stroke="#06b6d4" stroke-width="3"/>
    <rect x="320" y="140" width="55" height="55" rx="8" fill="#22d3ee" stroke="#06b6d4" stroke-width="3"/>
    <rect x="256" y="204" width="55" height="55" rx="8" fill="#22d3ee" stroke="#06b6d4" stroke-width="3"/>
  </g>
  
  <!-- Z-piece (red) -->
  <g filter="url(#glow)">
    <rect x="140" y="268" width="55" height="55" rx="8" fill="#f87171" stroke="#ef4444" stroke-width="3"/>
    <rect x="204" y="268" width="55" height="55" rx="8" fill="#f87171" stroke="#ef4444" stroke-width="3"/>
    <rect x="204" y="332" width="55" height="55" rx="8" fill="#f87171" stroke="#ef4444" stroke-width="3"/>
    <rect x="268" y="332" width="55" height="55" rx="8" fill="#f87171" stroke="#ef4444" stroke-width="3"/>
  </g>
  
  <!-- L-piece (orange) -->
  <g filter="url(#glow)">
    <rect x="332" y="268" width="55" height="55" rx="8" fill="#fb923c" stroke="#f97316" stroke-width="3"/>
    <rect x="332" y="332" width="55" height="55" rx="8" fill="#fb923c" stroke="#f97316" stroke-width="3"/>
  </g>
  
  <!-- O-piece (yellow) -->
  <g filter="url(#glow)">
    <rect x="140" y="140" width="55" height="55" rx="8" fill="#fbbf24" stroke="#f59e0b" stroke-width="3"/>
  </g>
</svg>

